<svg width="12px" height="14px" viewBox="0 0 12 14" version="1.1" xmlns="http://www.w3.org/2000/svg" xmlns:xlink="http://www.w3.org/1999/xlink">
    <g id="Page-1" stroke="none" stroke-width="1" fill="none" fill-rule="evenodd">
        <path d="M10.3333333,14 L1.66666667,14 C0.933333344,14 0.333333344,13.4 0.333333328,12.6666667 L0.333333328,4.33333333 C0.333333328,3.96666666 0.633333328,3.66666666 1,3.66666667 L2.66666667,3.66666667 L2.66666667,3 L2.7,3 C2.86666667,1.3 4.3,0 6,0 C7.7,0 9.13333333,1.3 9.3,3 L9.33333333,3 L9.33333333,3.66666667 L11,3.66666667 C11.3666667,3.66666667 11.6666667,3.96666667 11.6666667,4.33333333 L11.6666667,12.6666667 C11.6666667,13.4 11.0666667,14 10.3333333,14 Z M8.66666667,3.33333333 C8.66666667,1.86666666 7.46666667,0.666666656 6,0.666666672 C4.53333333,0.666666688 3.33333333,1.86666667 3.33333333,3.33333333 L3.33333333,3.66666667 L8.66666667,3.66666667 L8.66666667,3.33333333 Z M11,9 L11,4.33333333 L9.33333333,4.33333333 L8.66666667,4.33333333 L3.33333333,4.33333333 L2.66666667,4.33333333 L1,4.33333333 L1,12.6666667 C1,13.0333333 1.3,13.3333333 1.66666667,13.3333333 L10.3333333,13.3333333 C10.7,13.3333333 11,13.0333333 11,12.6666667 L11,9 Z" id="Shape" fill="#000000" fill-rule="nonzero"></path>
    </g>
</svg>